<svg viewBox="0 0 900 200" xmlns="http://www.w3.org/2000/svg" font-family="'Segoe UI', system-ui, sans-serif">
  <defs>
    <linearGradient id="bgGrad" x1="0%" y1="0%" x2="100%" y2="100%">
      <stop offset="0%" style="stop-color:#141321"/>
      <stop offset="50%" style="stop-color:#1a1040"/>
      <stop offset="100%" style="stop-color:#0d1117"/>
    </linearGradient>
    <linearGradient id="nameGrad" x1="0%" y1="0%" x2="100%" y2="0%">
      <stop offset="0%" style="stop-color:#fe428e"/>
      <stop offset="100%" style="stop-color:#f050a0"/>
    </linearGradient>
    <filter id="glow">
      <feGaussianBlur stdDeviation="6" result="blur"/>
      <feMerge><feMergeNode in="blur"/><feMergeNode in="SourceGraphic"/></feMerge>
    </filter>
    <filter id="blobBlur">
      <feGaussianBlur stdDeviation="22"/>
    </filter>
  </defs>
  <rect width="900" height="200" fill="url(#bgGrad)" rx="16"/>
  <circle cx="100" cy="60" r="70" fill="#fe428e" opacity="0.08" filter="url(#blobBlur)"/>
  <circle cx="800" cy="140" r="80" fill="#a9fef7" opacity="0.06" filter="url(#blobBlur)"/>
  <circle cx="450" cy="180" r="50" fill="#b5179e" opacity="0.07" filter="url(#blobBlur)"/>
  <circle cx="60" cy="30" r="1.5" fill="#fe428e" opacity="0.8"/>
  <circle cx="200" cy="15" r="1" fill="#a9fef7" opacity="0.7"/>
  <circle cx="550" cy="12" r="1.5" fill="#fe428e" opacity="0.6"/>
  <circle cx="720" cy="20" r="1" fill="#a9fef7" opacity="0.8"/>
  <circle cx="860" cy="35" r="1.5" fill="#fe428e" opacity="0.6"/>
  <circle cx="80" cy="170" r="1" fill="#a9fef7" opacity="0.5"/>
  <circle cx="820" cy="175" r="1.5" fill="#fe428e" opacity="0.6"/>
  <circle cx="150" cy="180" r="1" fill="#a9fef7" opacity="0.5"/>
  <rect x="28" y="68" width="80" height="20" rx="10" fill="#fe428e" opacity="0.15"/>
  <rect x="28" y="68" width="80" height="20" rx="10" fill="none" stroke="#fe428e" stroke-width="0.5" opacity="0.5"/>
  <text x="68" y="82" text-anchor="middle" font-size="10" fill="#fe428e" font-weight="600">Full-Stack</text>
  <rect x="116" y="68" width="72" height="20" rx="10" fill="#a9fef7" opacity="0.10"/>
  <rect x="116" y="68" width="72" height="20" rx="10" fill="none" stroke="#a9fef7" stroke-width="0.5" opacity="0.4"/>
  <text x="152" y="82" text-anchor="middle" font-size="10" fill="#a9fef7" font-weight="600">Node.js</text>
  <rect x="700" y="108" width="84" height="20" rx="10" fill="#a9fef7" opacity="0.10"/>
  <rect x="700" y="108" width="84" height="20" rx="10" fill="none" stroke="#a9fef7" stroke-width="0.5" opacity="0.4"/>
  <text x="742" y="122" text-anchor="middle" font-size="10" fill="#a9fef7" font-weight="600">MongoDB</text>
  <rect x="792" y="108" width="80" height="20" rx="10" fill="#fe428e" opacity="0.12"/>
  <rect x="792" y="108" width="80" height="20" rx="10" fill="none" stroke="#fe428e" stroke-width="0.5" opacity="0.4"/>
  <text x="832" y="122" text-anchor="middle" font-size="10" fill="#fe428e" font-weight="600">Next.js</text>
  <text x="450" y="68" text-anchor="middle" font-size="28">👋</text>
  <text x="450" y="112" text-anchor="middle" font-size="44" font-weight="800" fill="url(#nameGrad)" letter-spacing="-1" filter="url(#glow)">Purvi Gupta</text>
  <text x="450" y="142" text-anchor="middle" font-size="13" fill="#a9fef7" letter-spacing="0.8" opacity="0.85">Full-Stack Engineer · From ideas to systems that scale</text>
  <text x="450" y="165" text-anchor="middle" font-size="11" fill="#555" letter-spacing="0.3">Next.js · Node.js · MongoDB · Lead Systems · Query Optimization · Subscriptions</text>
  <rect x="300" y="182" width="300" height="2" rx="1" fill="url(#nameGrad)" opacity="0.5"/>
</svg>
